<svg width="512" height="512" viewBox="0 0 512 512" fill="none" xmlns="http://www.w3.org/2000/svg">
<path d="M206.504 144.495C200.303 147.682 189.192 157.449 196.255 163.392C198.149 164.994 202.305 163.357 201.164 161.118C198.472 155.967 205.837 151.248 209.562 147.647C211.22 145.994 209.066 143.203 206.504 144.495Z" fill="black"/>
<path d="M166.54 135.796C167.057 134.59 167.832 133.591 169.145 132.781C170.803 131.782 173.086 131.489 174.507 130.283C175.82 129.198 175.217 127.407 173.43 126.976C170.825 126.373 167.724 127.665 165.614 128.768C163.181 130.042 161.071 132.109 160.511 134.469C159.735 137.639 165.183 138.862 166.54 135.796Z" fill="black"/>
<path d="M159.456 149.18C158.034 156.622 166.927 163.099 173.925 156.88C177.694 153.556 160.058 145.856 159.456 149.18Z" fill="black"/>
<path d="M159.456 149.18C159.628 148.267 158.788 152.695 159.456 149.18Z" fill="black"/>
<path d="M154.46 161.463C153.749 160.946 152.673 160.946 151.962 161.463C149.142 163.616 151.855 167.113 153.749 168.973C156.053 171.247 160.877 173.555 164.623 172.453C167.078 171.747 167.509 168.68 164.623 168.129C162.083 167.664 160.252 167.578 158.25 166.027C156.527 164.736 156.075 162.755 154.46 161.463Z" fill="black"/>
<path d="M199.958 100.896C200.174 102.774 204.006 103.532 204.415 101.361C206.483 89.5096 209.648 76.2284 200.023 66.1856C190.182 55.9361 205.427 50.7511 216.237 48.8218C222.352 47.7366 227.886 48.3739 233.441 50.5616C248.6 56.5218 236.563 61.1901 233.032 64.6353C232.214 65.4104 228.489 110.715 235.939 127.321C237.274 130.284 242.808 129.129 241.86 126.029C238.76 115.883 236.606 105.892 235.874 95.487C235.228 86.2711 236.52 67.2536 236.154 67.0124C244.789 65.7722 248.385 60.122 245.564 53.2144C242.14 44.9804 227.412 42.2931 218.175 43.3439C208.7 44.4119 190.419 48.2361 189.213 58.0032C188.761 61.7757 190.247 64.5491 193.197 67.5464C203.21 77.727 198.537 88.9239 199.958 100.896Z" fill="black"/>
<path d="M372.283 292.018C361.581 301.51 354.712 317.444 338.627 321.906C322.047 326.522 306.2 320.372 291.687 312.121C293.065 311.639 294.206 310.605 293.818 309.089C287.983 286.489 280.727 263.44 271.188 241.65C260.917 218.136 256.847 167.164 256.718 167.078C258.527 164.684 259.862 162.152 261.412 159.533C263.802 155.52 267.118 152.884 271.597 150.369C275.86 147.906 279.026 145.063 277.303 140.705C272.889 129.388 248.643 133.057 238.351 133.798C237.898 133.832 227.541 132.816 223.213 131.731C217.033 130.129 211.112 121.36 211.047 121.24C215.009 116.434 217.464 111.335 220.177 105.96C220.931 104.445 219.036 102.929 217.249 102.894C195.264 102.601 157.13 100.396 143.543 118.777C141.842 121.068 146.062 123.841 148.237 121.671C163.461 106.701 190.785 107.39 212.921 107.683C210.875 111.8 208.851 115.934 207.085 120.137C205.858 120.585 204.932 121.498 205.363 122.876C207.107 128.544 211.78 132.867 218.261 135.434C227.175 139.672 248.6 136.95 253.703 137.174C257.859 137.346 278.961 139.878 268.432 146.045C259.452 151.299 251.981 158.741 251.033 168.008C250.904 169.214 252.541 170.041 253.919 169.817C250 178.689 254.737 188.628 255.749 197.861C257.105 210.419 257.665 222.477 261.584 234.776C269.487 259.737 279.262 284.387 287.036 309.434C277.303 303.508 268.281 297.014 260.142 292.621C257.816 291.364 255.684 294.034 257.299 295.567C274.353 311.587 314.856 337.374 343.515 326.246C361.56 319.27 377.321 280.356 399.844 290.916C420.02 300.39 420.343 322.663 412.161 337.719C402.45 355.686 380.616 363.541 357.318 364.144C331.974 364.781 306.975 355.221 285.744 345.143C263.221 334.481 251.055 316.186 244.552 296.601C243.389 293.138 236.671 294.602 237.812 298.099C251.012 337.908 290.998 361.319 340.867 368.674C382.769 374.824 423.272 354.6 424.391 318.96C425.059 296.773 396.033 270.917 372.283 292.018Z" fill="black"/>
<path d="M300.795 362.8C301.419 360.251 296.768 359.165 295.885 361.715C291.859 373.136 299.46 388.346 302.733 399.302C308.094 417.269 316.686 437.957 313.09 456.596C311.26 466.156 301.441 466.449 293.323 460.833C283.806 454.218 256.352 406.675 248.579 378.286C246.21 371.499 233.872 326.987 215.268 335.721C200.41 342.68 206.784 368.812 207.688 379.544C209.346 399.509 212.339 419.456 213.071 439.473C213.481 450.274 221.254 476.647 196.642 471.307C161.458 468.326 142.876 378.613 128.901 348.726C114.733 318.271 114.367 282.854 112.838 250.779C98.9277 177.638 100.887 96.8823 103.019 66.2028C102.997 64.2218 100.672 63.6189 98.8631 64.1185C94.9011 59.6053 92.2096 54.8337 94.2767 49.1663C96.9683 41.7247 108.079 39.0719 116.52 38.7618C124.616 38.4517 133.38 41.0529 138.203 46.3929C144.404 53.2316 137.535 59.3813 132.949 65.0142C132.217 65.9272 132.54 66.9091 133.315 67.6326C131.183 80.4315 131.959 93.7127 132.131 106.598C132.303 119.707 131.636 134.125 136.61 146.7C137.406 148.698 140.981 148.267 141.11 146.218C142.057 133.177 139.237 119.707 138.87 106.598C138.461 93.6955 139.732 80.5176 137.686 67.7015C145.826 62.9471 150.433 53.4211 145.718 45.8761C140.528 37.6421 129.655 34.1108 118.673 33.5423C107.347 32.9394 95.5687 36.8842 89.6687 44.8081C83.8119 52.7493 88.2476 62.5337 96.6453 67.9254C96.6883 67.9599 96.7529 67.9426 96.796 67.9771C96.5807 96.5722 97.9157 183.96 100.65 198.275C103.945 215.793 105.624 233.071 106.443 250.745C107.821 282.561 109.931 314.963 120.805 345.781C126.812 362.869 135.447 379.216 141.11 396.511C145.933 411.084 159.456 463.71 182.28 471.875C189.687 476.009 207.818 482.297 215.397 474.993C223.256 467.431 221.771 457.44 220.672 448.224C219.617 439.197 210.574 370.052 214.083 347.607C215.354 341.733 224.699 343.007 227.606 347.503C232.774 355.531 245.93 390.913 249.375 399.715C257.321 420.18 266.321 442.332 282.751 459.593C289.663 466.862 307.212 476.664 316.104 465.329C326.16 452.513 318.559 432.049 314.942 418.543C310.398 401.162 299.46 371.964 300.795 362.8Z" fill="black"/>
</svg>
